# xmcd
#
# Track frame offsets: 
#        150
#        12718
#        24569
#        38039
#        53171
#        63976
#        79620
#        94617
#        107311
#        118894
#        132863
#        148955
#        159058
#        173169
#        184793
#        197852
#        216826
#        226685
#        240142
#        251805
#        266910
#        287247
#        304426
#
# Disc length: 4187 seconds
#
# Revision: 0
# Processed by: cddbd v1.5.2PL0 Copyright (c) Steve Scherf et al.
# Submitted via: ExactAudioCopy v1.0b1
#
DISCID=43105917
DTITLE=Various Artist - King of the Road, Der wilde, wilde Westen
DYEAR=2010
DGENRE=Country
TTITLE0=Truck Stop - Der wilde, wilde Westen
TTITLE1=Freddy Quinn - Ich möcht in Tenneessee leben
TTITLE2=Glen Campbell - Rhinestone Cowboy
TTITLE3=Billie Jo Spears - Blanket On The Ground
TTITLE4=Peter Hinnen - Auf meiner Ranch bin ich König
TTITLE5=Johnny Hill - Jackson
TTITLE6=Bellamy Brothers - Dancin' Cowboys
TTITLE7=Jonny Cash - Folsom Prison Blues
TTITLE8=Martin Lauer - Sein bestes Pferd
TTITLE9=Peter Held - Der Spieler
TTITLE10=John Brack - Red River Valley
TTITLE11=Gene Martin - Wreck Of The Old '97
TTITLE12=Tom Astor - Take it easy, nimm's leicht
TTITLE13=Freddy Quinn - Die Freiheit der Berge
TTITLE14=Hank Williams - Jambalaya (On The Bayou)
TTITLE15=Gunter Gabriel - Intercity Linie Nr.4
TTITLE16=Martin Lauer - Wenn ich ein Cowboy wär
TTITLE17=Bobby Bare - The All American Boy
TTITLE18=Dave Dudly - Where Did All The Cowboys Go
TTITLE19=Ralf Paulson - Es hängt ein Pferdehalfter an der Wand
TTITLE20=Jonny Hill - Der Feigling
TTITLE21=Truck Stop - Old Texas Town, die Westernstadt
TTITLE22=Peter Hinnen - Siebentausend Rinder
EXTD=
EXTT0=
EXTT1=
EXTT2=
EXTT3=
EXTT4=
EXTT5=
EXTT6=
EXTT7=
EXTT8=
EXTT9=
EXTT10=
EXTT11=
EXTT12=
EXTT13=
EXTT14=
EXTT15=
EXTT16=
EXTT17=
EXTT18=
EXTT19=
EXTT20=
EXTT21=
EXTT22=
PLAYORDER=
